<?xml version="1.0" standalone="no"?>
<!DOCTYPE svg PUBLIC "-//W3C//DTD SVG 20010904//EN"
 "http://www.w3.org/TR/2001/REC-SVG-20010904/DTD/svg10.dtd">
<svg version="1.0" xmlns="http://www.w3.org/2000/svg"
 width="800.000000pt" height="800.000000pt" viewBox="0 0 800.000000 800.000000"
 preserveAspectRatio="xMidYMid meet">
<metadata>
Created by potrace 1.11, written by Peter Selinger 2001-2013
</metadata>
<g transform="translate(0.000000,800.000000) scale(0.100000,-0.100000)"
fill="#000000" stroke="none">
<path d="M3789 7996 c-2 -2 -47 -6 -99 -10 -107 -7 -131 -9 -280 -31 -965
-143 -1869 -660 -2484 -1420 -112 -139 -95 -117 -172 -225 -57 -79 -171 -256
-187 -290 -4 -8 -23 -42 -43 -75 -63 -108 -161 -316 -227 -480 -95 -239 -195
-602 -221 -805 -3 -19 -10 -69 -16 -110 -6 -41 -13 -88 -15 -105 -30 -202 -24
-771 9 -962 3 -15 10 -57 15 -93 70 -469 232 -942 468 -1360 39 -70 192 -312
202 -320 3 -3 21 -27 40 -55 145 -210 457 -549 651 -705 24 -19 49 -40 55 -47
6 -6 54 -43 106 -82 52 -39 99 -75 104 -79 6 -4 44 -31 85 -59 494 -332 1034
-545 1600 -632 173 -26 196 -29 310 -38 180 -15 659 -8 770 11 14 3 45 7 70
10 511 65 1032 242 1480 504 174 101 481 317 570 402 9 8 50 44 90 80 119 104
308 298 390 400 19 24 47 58 61 75 14 16 49 62 77 100 28 39 55 75 60 80 59
72 209 319 297 490 86 165 215 468 239 560 2 6 6 17 9 25 14 33 80 281 103
385 24 113 49 252 59 340 3 28 8 59 10 71 25 118 26 763 1 900 -2 10 -7 45
-11 78 -3 32 -8 68 -10 80 -22 126 -36 205 -40 226 -4 14 -8 36 -11 50 -3 14
-10 43 -16 65 -5 22 -12 48 -13 57 -9 43 -51 183 -92 302 -194 567 -522 1093
-948 1521 -144 144 -321 298 -449 390 -16 11 -47 34 -70 51 -156 118 -445 282
-681 389 -357 162 -799 282 -1185 320 -36 4 -76 9 -90 12 -30 5 -565 14 -571
9z"/>
</g>
</svg>
